<svg width="110" height="75" viewBox="0 0 110 75" fill="none" xmlns="http://www.w3.org/2000/svg">
<g clip-path="url(#clip0_117_2713)">
<path fill-rule="evenodd" clip-rule="evenodd" d="M93.8892 48.5746L65.7522 0L49.5107 9.34775L72.1776 48.5746H93.8892Z" fill="#0B0C0B"/>
<path fill-rule="evenodd" clip-rule="evenodd" d="M15.0612 48.5746H36.7914L28.1368 33.7568L11.9141 43.0858L15.0612 48.5746Z" fill="#0B0C0B"/>
<path fill-rule="evenodd" clip-rule="evenodd" d="M43.6848 48.5746H65.3963L47.1879 17.047L30.834 26.3947L43.6848 48.5746Z" fill="#0B0C0B"/>
<path fill-rule="evenodd" clip-rule="evenodd" d="M9.92847 58.9714C12.8508 58.9714 15.3048 61.5378 15.3048 64.3477C15.3048 67.2701 12.8508 69.7241 9.92847 69.7241C7.00613 69.7241 4.55211 67.2701 4.55211 64.3477C4.55211 61.5378 7.00613 58.9714 9.92847 58.9714ZM31.4152 58.9714C34.3375 58.9714 36.7915 61.5378 36.7915 64.3477C36.7915 67.2701 34.3375 69.7241 31.4152 69.7241C28.3804 69.7241 25.9264 67.2701 25.9264 64.3477C25.9264 61.5378 28.3804 58.9714 31.4152 58.9714ZM60.0204 58.9714C62.9428 58.9714 65.3968 61.5378 65.3968 64.3477C65.3968 67.2701 62.9428 69.7241 60.0204 69.7241C57.0981 69.7241 54.6441 67.2701 54.6441 64.3477C54.6628 61.5378 57.0981 58.9714 60.0204 58.9714ZM81.3948 58.9714C84.3171 58.9714 86.7711 61.5378 86.7711 64.3477C86.7711 67.2701 84.3171 69.7241 81.3948 69.7241C78.4724 69.7241 76.0184 67.2701 76.0184 64.3477C76.0184 61.5378 78.4724 58.9714 81.3948 58.9714ZM43.6853 53.2578H48.3498V48.5933H43.6853V53.2578ZM95.0698 71.9346C96.4748 73.2272 98.8164 74.1451 101.608 74.1451C104.418 74.1451 106.984 73.452 108.501 71.9346C109.438 70.8856 110.019 69.4806 110.019 67.7384C110.019 65.172 108.145 63.2987 105.354 62.6056C102.319 61.7813 98.3481 61.9125 98.3481 60.0392C98.4605 58.7466 99.7531 58.4094 101.608 58.4094C104.418 58.4094 104.53 59.9268 104.642 60.8634H109.307C108.951 57.248 106.029 54.7939 101.364 54.7939C96.4561 54.7939 93.6648 57.4727 93.6648 60.751C93.6648 62.7367 94.7139 64.4789 96.2313 65.3031C97.3927 65.8839 99.1536 66.2398 101.139 66.5957C103.125 66.9516 104.867 67.064 104.998 68.469C104.998 69.4056 104.062 70.6795 101.964 70.6795C98.8164 70.5671 98.1046 68.9373 98.1046 67.7572H93.1965C93.3089 69.3682 93.8896 70.7732 95.0698 71.9346ZM75.0817 71.9346C76.8426 73.2272 78.9407 74.1451 81.2636 74.1451C83.3617 74.1451 85.235 73.452 86.7524 72.4029V73.6955H91.4169V71.9346V55H86.7524V56.405C85.235 55.3559 83.2493 54.7752 81.2636 54.7752C75.8873 54.7752 71.5787 58.9714 71.5787 64.3477C71.5787 67.3825 72.9837 70.0613 75.0817 71.9346ZM53.7262 71.9346C55.3559 73.2272 57.5851 74.1451 59.908 74.1451C62.0061 74.1451 63.8794 73.452 65.3968 72.4029V73.6955H69.9489V71.9346V48.5746H65.3968V56.405C63.8794 55.3559 62.0061 54.7752 59.908 54.7752C54.5317 54.7752 50.2231 58.9714 50.2231 64.3477C50.2231 67.3825 51.6093 70.0613 53.7262 71.9346ZM43.6853 73.6955H48.3498V71.9346V55H43.6853V71.9346V73.6955ZM25.1022 71.9346C26.7319 73.2272 28.9612 74.1451 31.2841 74.1451C33.2698 74.1451 35.1431 73.452 36.7728 72.4029V73.6955H41.3249V71.9346V48.5746H36.7728V56.405C35.1431 55.3559 33.2698 54.7752 31.2841 54.7752C25.9077 54.7752 21.468 58.9714 21.468 64.3477C21.4867 67.3825 22.8917 70.0613 25.1022 71.9346ZM19.8569 71.9346V55H15.3048V56.405C13.6751 55.3559 11.8018 54.7752 9.70368 54.7752C4.43971 54.7752 0 58.9714 0 64.3477C0 67.3825 1.40497 70.0613 3.61546 71.9346C5.24523 73.2272 7.47445 74.1451 9.68495 74.1451C11.783 74.1451 13.7687 73.452 15.2861 72.4029V73.6955H19.8569V71.9346Z" fill="#0B0C0B"/>
</g>
<defs>
<clipPath id="clip0_117_2713">
<rect width="110" height="74.1638" fill="white"/>
</clipPath>
</defs>
</svg>
