<svg width="170" height="55" viewBox="0 0 170 55" fill="none" xmlns="http://www.w3.org/2000/svg">
<g id="Fila_color">
<path id="Fill 1" fill-rule="evenodd" clip-rule="evenodd" d="M45.2059 15.7355C49.3681 15.7355 52.7404 12.3665 52.7404 8.20956C52.7404 4.0515 49.3681 0.681396 45.2059 0.681396H7.5345C3.37344 0.681396 0 4.0515 0 8.20956C0 12.3665 3.37344 15.7355 7.5345 15.7355H45.2059Z" fill="#D0112B"/>
<path id="Combined Shape" fill-rule="evenodd" clip-rule="evenodd" d="M71.5288 47.4741C71.5288 51.631 68.1554 55 63.9943 55C59.8333 55 56.4598 51.631 56.4598 47.4741V7.52705C56.4598 3.37011 59.8333 0 63.9943 0C68.1554 0 71.5288 3.37011 71.5288 7.52705V47.4741ZM16.9564 35.0325C16.2775 35.0325 15.7273 35.5811 15.7273 36.2593L15.7284 47.4701C15.7284 51.6259 12.355 54.9949 8.19393 54.9949C4.03287 54.9949 0.659424 51.6259 0.659424 47.4701V27.501C0.659424 23.343 4.03287 19.974 8.19393 19.974H41.438C45.5991 19.974 48.9714 23.343 48.9714 27.501C48.9714 31.6558 45.5991 35.027 41.438 35.027L16.9564 35.0325ZM170 43.058C170 49.2918 164.941 54.3453 158.7 54.3453L137.831 54.3431C133.672 54.3431 130.296 50.9741 130.296 46.8171C130.296 42.6591 133.672 39.2901 137.831 39.2901H152.131L141.623 21.369L124.631 50.6128C123.324 52.8448 120.899 54.3431 118.126 54.3431L84.4656 54.3453C80.3045 54.3453 76.9311 50.9752 76.9311 46.8193V7.5273C76.9311 3.36924 80.3045 0.000244141 84.4656 0.000244141C88.6266 0.000244141 92.0001 3.36924 92.0001 7.5273L92.0056 36.832C92.0056 38.1874 93.1049 39.2868 94.4616 39.2868H112.374C113.337 39.2868 114.171 38.7337 114.575 37.9292L134.064 4.39102C135.56 1.78116 138.377 0.0157593 141.604 0.0157593C144.836 0.0157593 147.657 1.78227 149.15 4.39989L168.48 37.405C169.445 39.0662 170 40.9979 170 43.058Z" fill="#0F1D41"/>
</g>
</svg>
