<svg width="351" height="74" viewBox="0 0 351 74" fill="none" xmlns="http://www.w3.org/2000/svg">
<path d="M30.9252 0C30.9252 0 0 0 0 30.9252V42.2989C0 42.2989 0 73.2241 30.9252 73.2241H319.122C319.122 73.2241 350.047 73.2241 350.047 42.2989V30.9252C350.047 30.9252 350.047 0 319.122 0H30.9252Z" fill="black"/>
<path d="M38.962 17.1076L28.8103 56.3046H18.5175L28.6693 17.1076H38.962Z" fill="white"/>
<path d="M68.2422 47.7038L66.9733 50.6177C66.0333 52.7796 64.8583 54.2836 63.4954 55.1296C62.1324 55.9286 57.4795 56.3516 54.3306 56.3516H42.2989C40.607 56.3516 39.291 55.9756 38.304 55.2236C37.317 54.4716 36.8471 53.4376 36.8471 52.1217C36.8471 51.7457 36.8941 51.3227 36.988 50.8997C37.082 50.4767 44.3199 22.8884 44.3199 22.8884C45.2128 20.4915 46.4348 19.2225 47.7978 18.4235C49.1607 17.6245 51.4167 17.2016 54.5186 17.2016H75.621C74.5401 22.5124 66.8323 25.8023 66.8323 25.8023H56.7275C55.7406 25.8023 54.9886 25.9903 54.3306 26.4133C53.7196 26.8363 53.2026 27.4473 52.8266 28.2933L47.7508 47.6568C47.6568 47.7978 49.7717 47.7978 50.3357 47.7978H68.2422V47.7038Z" fill="white"/>
<path d="M153.78 56.3046C154.391 53.0616 157.775 50.1947 163.979 47.7038H177.467L179.112 41.7819H157.54C159.514 36.8941 162.851 34.0271 167.504 33.1811H181.509L183.53 25.7553H160.83C162.005 21.3375 165.154 18.4705 170.23 17.1546H195.75L184.846 56.3516H153.78V56.3046Z" fill="white"/>
<path d="M129.247 25.4733L120.646 56.3046H110.4L121.163 17.1076H157.916C157.916 17.1546 151.853 33.1811 151.853 33.1811C150.349 38.069 145.508 40.278 140.996 40.278H129.106C129.106 40.278 131.456 31.8182 131.503 31.6302C132.349 31.6302 137.048 31.6302 139.727 31.6302C144.427 31.6302 145.414 25.4263 145.414 25.4263L129.247 25.4733Z" fill="white"/>
<path d="M207.5 47.4688L209.756 39.808H224.278C224.278 39.902 227.897 27.3533 228.038 26.7423C227.427 26.7423 219.343 26.7423 219.39 26.7423C212.247 26.9303 209.051 27.9643 207.5 33.5101C207.5 33.4631 200.967 56.0226 200.967 55.9286H190.956L198.946 28.0113C200.779 20.3505 207.876 17.1546 213.469 17.1546H240.399L229.448 56.3516H219.484L222.069 47.5158L207.5 47.4688Z" fill="white"/>
<path d="M247.449 17.1076H257.318L246.838 56.0696H236.545L247.449 17.1076Z" fill="white"/>
<path d="M274.849 17.1076H285.048L279.972 33.2751C279.972 33.2751 279.22 36.7531 274.943 38.586C274.943 38.586 275.366 39.62 277.34 46.0588C279.22 52.1217 280.489 56.3046 280.489 56.3046H270.243C270.243 56.3046 268.081 46.6228 266.812 43.8499C265.543 41.0769 264.18 39.62 262.723 39.62H255.485L258.07 31.2072H265.966C265.966 31.2072 270.243 31.4422 271.982 26.6953C273.768 21.9484 274.849 17.1076 274.849 17.1076Z" fill="white"/>
<path d="M312.072 56.3046C322.788 56.3046 331.482 47.5158 331.482 36.7061C331.482 25.8963 322.788 17.1076 312.072 17.1076C301.356 17.1076 292.661 25.8963 292.661 36.7061C292.661 47.5158 301.356 56.3046 312.072 56.3046Z" fill="#E7661F"/>
<path d="M72.0021 56.0696C72.6131 52.8266 75.997 49.9597 82.2009 47.4688H95.6895L97.3345 41.5469H75.762C77.736 36.6591 81.0729 33.7921 85.7258 32.9462H99.7314L101.752 25.5203H79.052C80.2269 21.1025 83.3759 18.2355 88.4517 16.9196H113.972L103.068 56.1166H72.0021V56.0696Z" fill="white"/>
</svg>
