<svg width="167" height="60" viewBox="0 0 167 60" fill="none" xmlns="http://www.w3.org/2000/svg">
<g clip-path="url(#clip0_2_2992)">
<path d="M21.2738 2.65905C10.4226 15.3967 0.021761 31.2009 -0.171245 43.0164C-0.276227 45.1323 0.0995121 47.2444 0.927777 49.1943C1.75604 51.1441 3.01531 52.881 4.61102 54.2745C8.93995 58.0561 14.5185 60.0964 20.2659 60C28.1363 60 35.9208 56.8692 42.0327 54.4246C52.3049 50.3074 165.9 0.986426 165.9 0.986426C166.993 0.428885 166.779 -0.257316 165.406 0.0857865L41.9255 33.5811C39.5978 34.2574 37.1867 34.6038 34.7628 34.6104C25.3055 34.6104 16.8776 29.421 16.9419 18.356C17.1794 12.8633 18.6606 7.49616 21.2738 2.65905Z" fill="#1D1D1B"/>
</g>
<defs>
<clipPath id="clip0_2_2992">
<rect width="166.757" height="60" fill="white"/>
</clipPath>
</defs>
</svg>
