<svg width="128" height="69" viewBox="0 0 128 69" fill="none" xmlns="http://www.w3.org/2000/svg">
<g clip-path="url(#clip0_8_1197)">
<path d="M68.7174 3.1209C68.3002 3.18565 67.8992 4.73149 67.0931 5.53679C66.5035 6.11799 65.7676 6.08163 65.3767 6.80015C65.2283 7.06859 65.2763 7.52679 65.1079 7.96674C64.779 8.84665 63.6201 8.92531 63.6201 9.88402C63.6161 10.9194 64.5866 11.1171 65.4267 11.8517C66.0825 12.443 66.1467 12.8507 66.9406 13.1372C67.6186 13.3694 68.6271 12.6105 69.5355 12.883C70.2815 13.1071 70.9952 13.2685 71.1638 14.0394C71.312 14.7499 71.1537 15.8517 70.2494 15.7246C69.9445 15.6903 68.6231 15.2423 66.9989 15.4158C65.0397 15.6399 62.8038 16.2835 62.5853 18.4816C62.465 19.7106 63.9749 21.1597 65.4328 20.865C66.4413 20.6651 65.9642 19.4685 66.5136 18.8872C67.2334 18.1426 71.312 21.4866 75.104 21.4866C76.7002 21.4866 77.8872 21.081 79.0665 19.8378C79.1766 19.7429 79.311 19.5391 79.4814 19.5269C79.6419 19.5391 79.9226 19.6984 80.0148 19.7671C83.0688 22.2373 85.3768 27.1921 96.6002 27.2506C98.1783 27.2586 99.9769 28.0175 101.445 29.3656C102.754 30.5847 103.52 32.4796 104.264 34.403C105.387 37.2891 107.4 40.0964 110.452 43.2206C110.619 43.388 113.131 45.3538 113.332 45.5012C113.364 45.5213 113.548 45.9653 113.484 46.2135C113.41 48.0864 113.139 53.5334 117.174 53.7797C118.16 53.8301 117.902 53.1319 117.902 52.6515C117.9 51.7029 117.727 50.7605 118.225 49.7897C118.904 48.4538 116.783 47.8381 116.845 44.9501C116.889 42.7967 115.092 43.1639 114.18 41.5232C113.655 40.5726 113.187 40.0682 113.221 38.9055C113.426 32.3627 111.838 28.0639 111.046 27.0084C110.428 26.2112 109.917 25.8944 110.482 25.525C113.849 23.2868 114.613 21.204 114.613 21.204C116.404 16.9679 118.014 13.0988 120.234 11.3957C120.681 11.0444 121.828 10.1827 122.532 9.8436C124.603 8.8607 125.694 8.26545 126.296 7.676C127.248 6.74163 128 4.79408 127.088 3.61343C125.953 2.15625 123.99 3.3127 123.123 3.82928C116.933 7.52679 116.021 14.0494 113.877 17.7953C112.167 20.7882 109.386 22.9861 106.899 23.1657C105.034 23.305 103.025 22.9256 101.024 22.0416C96.157 19.8943 93.4939 17.1213 92.8664 16.6309C91.5589 15.6157 81.4084 5.58721 73.1849 5.17753C73.1849 5.17753 72.1644 3.12104 71.9076 3.08671C71.306 3.00993 70.6905 4.31573 70.2494 4.46726C69.8343 4.60633 69.1365 3.05237 68.7174 3.12104V3.1209ZM32.5149 62.9747C31.7408 62.9564 31.0832 62.3167 31.0832 61.5256L31.0852 35.7088H22.6311V64.1673C22.6311 65.5619 23.7539 66.7003 25.1315 66.7003H39.9082C41.2957 66.7003 42.4047 65.5619 42.4047 64.1673V35.7088H33.9587L33.9506 61.5256C33.9506 62.3167 33.2928 62.9564 32.5149 62.9747ZM60.8207 35.7088H48.0253C46.5114 35.7088 45.2782 36.948 45.2782 38.4879V66.7001H53.7401V40.821C53.7461 40.0279 54.3837 39.4002 55.1699 39.4002C55.9599 39.4002 56.5935 40.0137 56.6115 40.7989V66.7003H65.0396V40.7986C65.0496 40.0136 65.6832 39.4001 66.4713 39.4001C67.2534 39.4001 67.8991 40.0278 67.9051 40.8209V66.7003H76.3671V38.4879C76.3671 36.948 75.1319 35.7088 73.618 35.7088H60.8207ZM11.3175 40.8754C11.3235 40.0136 10.6258 39.4001 9.88579 39.4001H8.45005V55.0754H9.88579C10.6318 55.0754 11.3237 54.478 11.3175 53.6204V40.8754ZM16.9904 58.912H8.45005V66.7003H0V35.7088H17.0446C18.5705 35.7088 19.7615 36.9561 19.7615 38.5V56.1209C19.7615 57.6669 18.5244 58.912 16.9904 58.912ZM105.365 59.7697C103.667 59.7697 102.241 61.247 102.241 63.0373C102.241 64.8334 103.667 66.2986 105.419 66.2986C107.158 66.2986 108.565 64.8334 108.565 63.0373C108.565 61.243 107.158 59.7697 105.419 59.7697H105.365ZM109.171 63.0271C109.171 65.132 107.495 66.8436 105.419 66.8436C103.322 66.8436 101.637 65.1443 101.637 63.0271C101.637 60.9503 103.322 59.2147 105.357 59.2147C107.495 59.2147 109.171 60.898 109.171 63.0271Z" fill="black"/>
<path d="M105.028 62.7851C105.616 62.7851 105.924 62.5752 105.924 62.1555C105.924 61.7821 105.626 61.5904 105.054 61.5904H104.886V62.7851H105.028ZM107.192 65.2352H106.183L104.886 63.4975V65.2352H104.061V60.8416H104.928C106.105 60.8416 106.73 61.2897 106.73 62.1454C106.73 62.7164 106.362 63.2232 105.846 63.3744L105.786 63.3967L107.192 65.2352ZM90.5543 55.0817V40.8111C90.5342 40.0219 89.9026 39.4165 89.1145 39.4165C88.3344 39.4165 87.6887 40.0461 87.6828 40.8333V55.0817H90.5543ZM90.5543 66.7005V58.9203H87.6828V66.7005H79.2368V38.4881C79.2368 36.9482 80.4699 35.709 81.9839 35.709H96.2531C97.7711 35.709 99.0044 36.9482 99.0044 38.4881V66.7003L90.5543 66.7005Z" fill="black"/>
</g>
<defs>
<clipPath id="clip0_8_1197">
<rect width="128" height="69" fill="white"/>
</clipPath>
</defs>
</svg>
