<svg width="131" height="66" viewBox="0 0 131 66" fill="none" xmlns="http://www.w3.org/2000/svg">
<path id="Reebok_logo" fill-rule="evenodd" clip-rule="evenodd" d="M0 0H13.6105C17.7146 0 22.1449 2.90573 22.1449 7.60064C22.1449 10.9311 20.411 13.6794 16.8877 14.8747C19.1299 15.4399 21.46 17.1178 21.46 20.4191V26.6471H15.7873V21.9689C15.7661 18.7418 14.3276 17.2431 11.0723 17.111H7.28233V12.5521L12.6897 12.5551C14.8539 12.5551 16.3991 10.8853 16.3991 8.6863C16.3991 5.80922 14.3441 4.7826 12.4205 4.77986L5.40666 4.77363V21.8794H0V0ZM76.13 4.80726H79.7611C83.7322 4.80726 87.8401 8.06051 87.8401 13.5058C87.8401 18.5143 83.0887 21.8792 78.651 21.8792H68.6132V0H74.1897V17.2406H78.6891C80.1129 17.2062 82.2181 15.9327 82.2181 13.3127C82.2181 11.18 80.591 9.44587 78.5906 9.44587L76.13 9.43765V4.80726ZM90.0089 13.4995C90.0089 8.13744 94.0622 4.53542 100.094 4.53542C106.132 4.53542 110.188 8.13744 110.188 13.4995C110.188 18.7806 106.038 22.4688 100.094 22.4688C94.3446 22.4688 90.0089 18.6132 90.0089 13.4995ZM95.5216 13.4626C95.5216 15.9946 97.5719 18.0539 100.092 18.0539C102.603 18.0539 104.646 15.9946 104.646 13.4626C104.646 10.9512 102.603 8.90819 100.092 8.90819C97.5719 8.90819 95.5216 10.9512 95.5216 13.4626ZM29.4837 13.346C29.4837 11.1809 31.2224 9.41888 33.3593 9.41888H37.7754L34.2102 15.3895H39.5365L43.1219 9.76391V4.81988L32.4812 4.83209C27.8396 4.83209 24.0641 8.65633 24.0641 13.3557C24.0641 18.0551 27.8396 21.8791 32.4807 21.8791H43.1551V17.2709H33.3593C31.2224 17.2709 29.4837 15.5101 29.4837 13.346ZM125.254 12.7675C129.007 11.5865 130.077 9.5235 130.091 5.42V4.78898H124.577V5.71471C124.577 8.463 123.414 10.433 120.829 10.433L118.206 10.4343V0.000154935H112.608V21.8788H118.206V15.0572H120.214C122.998 15.0572 124.699 16.666 124.699 19.202V21.8788H130.263V19.3859C130.263 16.116 128.814 13.755 125.254 12.7675ZM130.263 30.6597C106.677 36.4652 97.7756 39.8039 83.4819 45.5996C83.1783 45.4198 69.5995 37.3471 69.5995 37.3471C89.1251 33.4865 117.463 31.5167 130.263 30.6597ZM39.0298 64.8023H57.7123C61.4128 59.1259 65.0967 56.3567 69.385 53.2761C66.1392 52.0071 62.878 50.7801 59.5613 49.5911C47.6296 54.927 40.9933 62.0834 39.0298 64.8023ZM10.5631 64.7685C16.8176 56.6952 26.0677 50.1775 42.7238 44.1431C42.7523 44.1461 42.8221 44.1605 42.9289 44.186C47.1856 45.4435 51.2673 46.7496 55.2362 48.1076C40.8454 53.794 33.1876 61.9679 31.1762 64.8021L10.5631 64.7685ZM51.2797 31.4369H5.63275C47.2252 39.0526 69.3388 48.6285 99.5353 61.7045L99.5382 61.7058C102.751 63.0969 106.055 64.5277 109.484 66C106.435 63.6926 57.2892 34.3747 51.2797 31.4369ZM55.1003 9.41888C52.9632 9.41888 51.2247 11.1809 51.2247 13.346C51.2247 15.5101 52.9632 17.2709 55.1003 17.2709H64.8968V21.8791H54.2215C49.5806 21.8791 45.8051 18.0551 45.8051 13.3557C45.8051 8.65633 49.5806 4.83209 54.2223 4.83209L64.8629 4.81988V9.76391L61.2783 15.3895H55.9512L59.5164 9.41888H55.1003Z" fill="black"/>
</svg>
