<svg width="166" height="31" viewBox="0 0 166 31" xmlns="http://www.w3.org/2000/svg" xmlns:xlink="http://www.w3.org/1999/xlink">
    <defs>
        <path id="a" d="M0 0h166v31H0z"/>
    </defs>
    <g fill="none" fill-rule="evenodd">
        <mask id="b" fill="#fff">
            <use xlink:href="#a"/>
        </mask>
        <path d="M166 3.09c0-.076 0-.152-.002-.228-.048-1.377-.92-2.461-2.248-2.796-.049-.013-.093-.044-.14-.066h-26.184c-.037.02-.072.048-.111.058-1.423.357-2.288 1.456-2.288 2.92-.001 8.354-.002 16.709 0 25.063 0 1.705 1.246 2.957 2.952 2.958 8.359.002 16.719.002 25.078-.004.3 0 .608-.04.894-.124 1.28-.383 2.048-1.499 2.048-2.945L166 3.09zm-18.773 6.992c4.164 2.346 8.327 4.697 12.495 7.034.966.542 1.422 1.35 1.42 2.443v5.076c0 .795-.402 1.276-1.183 1.356-2.833.294-5.674.469-8.522.452a207.66 207.66 0 0 1-6.686-.154c-1.252-.048-2.502-.184-3.752-.305-.686-.067-1.107-.568-1.11-1.25a619.38 619.38 0 0 1 0-3.059c.001-.482.184-.68.661-.685 1.007-.008 2.015-.035 3.02.014.393.02.805.167 1.161.348.809.412 1.592.875 2.38 1.327.451.26.923.385 1.452.38 1.57-.018 3.139-.006 4.709-.007.658 0 .997-.234 1.143-.782.146-.548-.072-1.04-.596-1.335-4.173-2.352-8.344-4.709-12.522-7.053-.952-.534-1.417-1.32-1.411-2.41.009-1.714.003-3.428.003-5.142 0-.784.43-1.252 1.204-1.33 3.136-.31 6.28-.48 9.432-.455.361.003 5.536.196 8.303.344.398.021.796.074 1.194.119a1.238 1.238 0 0 1 1.118 1.226c.009 1.043.006 2.083 0 3.125-.001.424-.217.652-.637.656-1.04.01-2.08.035-3.117-.015-.382-.018-.778-.185-1.125-.365-.797-.41-1.573-.866-2.35-1.312a2.777 2.777 0 0 0-1.452-.385c-1.558.017-3.117.006-4.677.006-.67 0-1.026.228-1.17.75-.16.58.057 1.074.615 1.388zm-23.719 15.82h3.718c-.072-3.5-.03-6.957-.246-10.398-.186-2.989-1.69-4.65-4.476-5.193-2.36-.461-4.759-.464-7.116.07-2.21.5-3.617 1.882-4.062 4.138-.157.804-.26 1.632-.273 2.45-.044 2.808-.037 5.615-.046 8.423 0 .169.024.339.04.532h3.624c0-1.304-.015-2.539.003-3.772.027-1.863.026-3.729.131-5.588.101-1.8 1.117-2.801 2.906-2.92a22.373 22.373 0 0 1 3.05.022c1.326.094 2.26.948 2.504 2.258.136.729.222 1.478.23 2.218.03 2.376.012 4.752.013 7.127v.634zm-14.057-3.961a19.48 19.48 0 0 0 .112-6.562c-.468-3.07-1.735-4.535-4.488-5.064-2.436-.468-4.913-.48-7.348.068-2.238.504-3.649 1.921-4.062 4.203-.421 2.333-.403 4.679-.061 7.028.366 2.51 1.788 4.056 4.228 4.576 1.215.26 2.479.283 3.362.376 1.29-.075 2.21-.104 3.125-.186 2.78-.247 4.642-1.828 5.132-4.44zm-3.546-1.684c-.213 1.801-1.259 2.615-3.118 2.709-.41.02-.823.003-1.234.003l-.004.053c-.662-.052-1.331-.06-1.985-.166-1.222-.2-2.02-.92-2.29-2.14a11.208 11.208 0 0 1-.004-4.847c.278-1.274 1.194-2.109 2.499-2.2a24.07 24.07 0 0 1 3.226-.03c1.778.114 2.687.883 2.9 2.642.159 1.309.166 2.667.01 3.976zm-14.028 5.698c0-2 .033-3.962-.01-5.923-.037-1.684-.077-3.375-.264-5.046-.265-2.364-1.59-3.937-3.917-4.52-.958-.24-1.968-.35-2.957-.379-2.304-.067-4.604-.018-6.404 1.492-.95-.428-1.75-.93-2.618-1.15-2.134-.543-4.318-.515-6.47-.103-2.543.488-4.07 2.019-4.453 4.641-.517 3.558-.197 7.135-.275 10.704-.002.103.16.301.247.303 1.13.02 2.26.013 3.445.013v-.718c0-2.239-.025-4.478.012-6.716.015-.917.09-1.846.265-2.745.214-1.09.923-1.873 2.034-2.016a14.084 14.084 0 0 1 3.325-.053c1.276.141 2.06.986 2.295 2.263.117.634.201 1.283.208 1.925.026 2.455.014 4.91.015 7.365v.659h3.676c0-.275-.002-.507 0-.74.022-2.708.015-5.419.077-8.127.045-1.954.82-3.087 2.42-3.328 1.085-.163 2.228-.108 3.323.028 1.195.148 1.887 1.001 2.112 2.158.154.785.235 1.595.249 2.394.033 2.082.011 4.164.011 6.246v1.373h3.654zm-28.99-3.972c.218-1.211.284-2.45.4-3.504-.092-1.137-.143-2.098-.252-3.052-.328-2.891-1.698-4.545-4.455-5.1-2.433-.49-4.91-.495-7.344.05-2.435.543-3.795 2.105-4.171 4.57a21.887 21.887 0 0 0-.007 6.616c.372 2.472 1.659 4.03 4.077 4.58 2.603.593 5.254.585 7.857-.016 2.165-.5 3.503-1.94 3.896-4.144zm-3.535-1.485c-.31 1.596-1.301 2.36-3.053 2.465-.43.026-.862.004-1.293.004 0 .013 0 .025-.002.038-.566-.031-1.14-.018-1.698-.103-1.64-.25-2.416-1-2.68-2.65a11.908 11.908 0 0 1 .07-4.275c.277-1.362 1.208-2.228 2.594-2.315a27.194 27.194 0 0 1 3.287-.013c1.562.093 2.464.88 2.768 2.4a11.48 11.48 0 0 1 .007 4.45zm-12.827 5.404-.526-3.182c-.756.05-1.438.11-2.12.134-.684.022-1.37.029-2.055.004-2.016-.072-2.916-1.005-2.916-2.994-.001-3.003 0-6.005-.002-9.007 0-.226-.019-.453-.03-.692h-3.578v.686l.001 9.83c.001 2.639 1.221 4.283 3.748 5.003 2.446.699 4.92.391 7.478.218zm-12.77-4.201c.084-2.256.122-4.519.034-6.772-.099-2.475-1.343-3.938-3.764-4.545-3.558-.892-7.077-.36-10.576.428-.116.027-.29.18-.292.278-.02 1.034-.013 2.07-.013 3.147l.932-.167c2.43-.444 4.867-.85 7.35-.638.595.05 1.212.166 1.758.396.885.373.917 1.333.1 1.839-.26.163-.559.304-.858.36-1.383.254-2.773.478-4.16.708-1.525.25-3.055.485-4.458 1.19-1.011.507-1.77 1.263-2.006 2.396-.477 2.287.187 4.603 3.075 5.462 2.112.628 4.284.673 6.463.535 1.315-.083 2.605-.289 3.812-.863 1.584-.753 2.54-1.993 2.604-3.754zm-3.523-1.6c-.01 1.413-.566 2.219-1.932 2.572-1.826.472-3.677.424-5.52.053a1.824 1.824 0 0 1-.385-.14c-.485-.224-.77-.575-.756-1.142.015-.541.337-.851.8-.957 1.138-.262 2.293-.453 3.436-.697 1.44-.308 2.876-.641 4.358-.973 0 .345.003.815 0 1.285zm-13.577 1.09c-.115-2.159-1.008-3.338-3.199-3.842-1.728-.398-3.507-.566-5.262-.853-1.077-.176-2.157-.351-3.22-.591-.518-.117-.92-.46-.91-1.076.011-.636.365-1.043.952-1.185.642-.155 1.301-.305 1.958-.328 2.943-.106 5.87-.002 8.81.968 0-1.007-.028-1.93.01-2.849.02-.467-.147-.633-.587-.728a30.475 30.475 0 0 0-9.521-.516c-1.165.118-2.333.487-3.431.916-1.132.441-1.85 1.375-2.104 2.589-.57 2.736.471 4.52 3.13 5.409.24.08.48.173.73.211 1.794.282 3.593.54 5.387.828.865.138 1.74.27 2.575.522.266.08.578.534.585.823.007.324-.257.704-.5.97-.163.178-.487.243-.752.287-2.8.47-5.579.24-8.34-.312-.813-.161-1.61-.405-2.458-.622 0 1.052.015 2.052-.008 3.053-.008.38.107.53.493.628 2.332.586 4.7.821 7.095.821 1.96 0 3.923-.01 5.787-.746 1.928-.76 2.892-2.289 2.78-4.377z" fill="#000105" mask="url(#b)"/>
    </g>
</svg>
